# xmcd
#
# Track frame offsets: 
#        150
#        24299
#        52902
#        78615
#        89734
#        111169
#        126327
#        143639
#        166793
#        186077
#        211610
#        225387
#        239959
#
# Disc length: 3431 seconds
#
# Revision: 1
# Processed by: cddbd v1.5.2PL0 Copyright (c) Steve Scherf et al.
# Submitted via: ExactAudioCopy v0.90b4
#
DISCID=a90d650d
DTITLE=MarchFourth Marching Band - Rise Up
DYEAR=2009
DGENRE=Jazz
TTITLE0=Ninth Ward Calling
TTITLE1=Dynomite
TTITLE2=Gospel
TTITLE3=Contada Ridiculata
TTITLE4=Snake Five
TTITLE5=Simplon Cocek
TTITLE6=Nightmarika
TTITLE7=Wet Nap
TTITLE8=Tongue and Groove
TTITLE9=Yak Attack
TTITLE10=Powerhouse
TTITLE11=Freestyle For Miles
TTITLE12=Happiness
EXTD=YEAR: 2009
EXTT0=
EXTT1=
EXTT2=
EXTT3=
EXTT4=
EXTT5=
EXTT6=
EXTT7=
EXTT8=
EXTT9=
EXTT10=
EXTT11=
EXTT12=
PLAYORDER=
